<svg xmlns="http://www.w3.org/2000/svg" viewBox="0 0 500 500"><title>doyeong.kim</title><circle cx="250" cy="250" r="250" style="fill:#7f5cff"/><path d="M392,156.12l0-.11-141-73.85-.23-.12L107.64,155l.22.45v190.8L250.24,418v0l142.12-72V156ZM108.86,345.65v-.19l.14.25Zm141.5,70.75L109.23,345.83l141.13-73.42Zm0-187.94v42.82l-141.5,73.61V156.77L250.14,228.4l.22-.44Zm0-1.06L108.72,155.58,250.36,83.4Zm1-143.95,139.72,73.16L251.36,227.45Zm0,332.88V272.45L391,345.55Zm140-71.7-140-73.31V228.57l140-71Z" style="fill:#fff"/><polygon points="109 346 251 272 392 345 251 417 109 346" style="fill:#fff"/></svg>