<svg xmlns="http://www.w3.org/2000/svg" viewBox="0 0 500 487.65"><title>github</title><path d="M250,6.17C112,6.17,0,118.1,0,256.17,0,366.63,71.63,460.34,171,493.4c12.49,2.31,17.08-5.43,17.08-12,0-6-.23-25.66-.34-46.55-69.55,15.13-84.23-29.49-84.23-29.49-11.37-28.9-27.76-36.58-27.76-36.58-22.68-15.52,1.71-15.2,1.71-15.2,25.11,1.76,38.33,25.77,38.33,25.77,22.29,38.21,58.48,27.16,72.75,20.78,2.24-16.16,8.72-27.19,15.87-33.44-55.53-6.31-113.9-27.75-113.9-123.55,0-27.29,9.76-49.59,25.76-67.1-2.6-6.3-11.16-31.72,2.42-66.16,0,0,21-6.72,68.76,25.63a237,237,0,0,1,125.21,0c47.72-32.35,68.68-25.63,68.68-25.63,13.61,34.44,5.05,59.86,2.45,66.16,16,17.51,25.73,39.81,25.73,67.1,0,96-58.48,117.17-114.15,123.36,9,7.76,17,23,17,46.29,0,33.45-.28,60.37-.28,68.61,0,6.65,4.5,14.45,17.17,12C428.46,460.27,500,366.59,500,256.17,500,118.1,388.07,6.17,250,6.17Z" transform="translate(0 -6.17)" style="fill:#fff;fill-rule:evenodd"/><path d="M94.69,365.12c-.55,1.24-2.51,1.61-4.29.76s-2.83-2.51-2.24-3.76,2.49-1.63,4.31-.78,2.85,2.53,2.22,3.78Zm-3.08-2.28" transform="translate(0 -6.17)" style="fill:#fff"/><path d="M104.82,376.41c-1.2,1.11-3.53.59-5.11-1.15s-1.94-4.08-.73-5.2,3.49-.59,5.12,1.16,2,4.07.72,5.19Zm-2.39-2.56" transform="translate(0 -6.17)" style="fill:#fff"/><path d="M114.67,390.81c-1.53,1.07-4,.07-5.58-2.16s-1.54-4.89,0-5.95,4-.11,5.59,2.09,1.53,4.93,0,6Zm0,0" transform="translate(0 -6.17)" style="fill:#fff"/><path d="M128.18,404.72c-1.37,1.51-4.29,1.1-6.43-1s-2.79-4.87-1.42-6.39,4.32-1.08,6.48,1,2.83,4.89,1.37,6.39Zm0,0" transform="translate(0 -6.17)" style="fill:#fff"/><path d="M146.81,412.8c-.61,1.95-3.42,2.84-6.25,2s-4.68-3.15-4.11-5.12,3.41-2.9,6.26-2,4.68,3.13,4.1,5.12Zm0,0" transform="translate(0 -6.17)" style="fill:#fff"/><path d="M167.27,414.29c.07,2.07-2.34,3.78-5.31,3.81s-5.41-1.6-5.44-3.63,2.35-3.77,5.34-3.82,5.41,1.6,5.41,3.64Zm0,0" transform="translate(0 -6.17)" style="fill:#fff"/><path d="M186.3,411.06c.36,2-1.71,4.07-4.66,4.62s-5.58-.71-6-2.7,1.75-4.13,4.65-4.67,5.6.7,6,2.75Zm0,0" transform="translate(0 -6.17)" style="fill:#fff"/></svg>